<svg xmlns="http://www.w3.org/2000/svg" fill="#000000" width="800" height="800" viewBox="0 -27.73 122.88 122.88" xmlns:v="https://vecta.io/nano"><path d="M79.93 51.37c-.53-.51-.32-1.2.48-1.54s1.87-.2 2.41.3c3.78 3.6 1.96 6.52.21 9.32-1.32 2.12-2.59 4.15-.25 6.19.57.5.4 1.19-.37 1.55s-1.86.26-2.43-.24c-3.47-3.03-1.86-5.62-.17-8.32 1.41-2.27 2.89-4.63.12-7.26h0zM14.57 28.11h73.65a1.74 1.74 0 0 1 1.74 1.74v12.26h24.13a5.3 5.3 0 0 0 5.31-5.31v-28a5.3 5.3 0 0 0-1.56-3.75 5.3 5.3 0 0 0-3.75-1.56H8.8a5.3 5.3 0 0 0-3.75 1.56c-.97.96-1.57 2.29-1.57 3.75v28a5.3 5.3 0 0 0 1.56 3.75 5.3 5.3 0 0 0 3.75 1.56h4.03V29.85c.01-.96.79-1.74 1.75-1.74h0zm71.91 3.48H16.31v10.09h70.17V31.59h0zM15.21 13.64a1.74 1.74 0 1 1 0-3.48h93.74a1.74 1.74 0 1 1 0 3.48H15.21h0zm83.37 18.35a2.46 2.46 0 0 1 0 4.92 2.46 2.46 0 0 1-2.46-2.46c0-1.36 1.11-2.46 2.46-2.46h0zm10.27 0a2.46 2.46 0 1 1 0 4.92 2.46 2.46 0 1 1 0-4.92h0zM8.8 0h105.29a8.77 8.77 0 0 1 6.21 2.58 8.77 8.77 0 0 1 2.58 6.21V36.8a8.77 8.77 0 0 1-8.79 8.79H8.8a8.77 8.77 0 0 1-6.21-2.58C.99 41.42 0 39.22 0 36.8v-28a8.77 8.77 0 0 1 2.58-6.21C4.18.99 6.38 0 8.8 0h0zm6.41 21.76a1.74 1.74 0 1 1 0-3.48h93.74a1.74 1.74 0 0 1 0 3.48H15.21h0zm6.16 29.61c-.53-.51-.32-1.2.48-1.54s1.87-.2 2.41.3c3.78 3.6 1.96 6.52.21 9.32-1.32 2.12-2.59 4.15-.25 6.19.57.5.4 1.19-.37 1.55s-1.86.26-2.43-.24c-3.47-3.03-1.86-5.62-.17-8.32 1.41-2.27 2.88-4.63.12-7.26h0zm14.64 0c-.53-.51-.32-1.2.48-1.54s1.87-.2 2.41.3c3.78 3.6 1.96 6.52.21 9.32-1.32 2.12-2.59 4.15-.25 6.19.57.5.4 1.19-.37 1.55s-1.86.26-2.43-.24c-3.47-3.03-1.86-5.62-.17-8.32 1.41-2.27 2.88-4.63.12-7.26h0zm14.64 0c-.53-.51-.32-1.2.48-1.54s1.87-.2 2.41.3c3.78 3.6 1.96 6.52.21 9.32-1.32 2.12-2.59 4.15-.25 6.19.57.5.4 1.19-.37 1.55s-1.86.26-2.43-.24c-3.47-3.03-1.86-5.62-.17-8.32 1.41-2.27 2.89-4.63.12-7.26h0zm14.64 0c-.53-.51-.32-1.2.48-1.54s1.87-.2 2.41.3c3.78 3.6 1.96 6.52.21 9.32-1.32 2.12-2.59 4.15-.25 6.19.57.5.4 1.19-.37 1.55s-1.86.26-2.43-.24c-3.47-3.03-1.85-5.62-.17-8.32 1.41-2.27 2.89-4.63.12-7.26h0z"/></svg>