<svg xmlns="http://www.w3.org/2000/svg" fill="#532ee7" height="800" width="800" viewBox="0 0 511.894 511.894" xmlns:v="https://vecta.io/nano"><path d="M477.973 53.28H34.027C15.253 53.28 0 68.534 0 87.307v337.28c0 18.773 15.253 34.027 34.027 34.027h443.84c18.773 0 34.027-15.253 34.027-34.027V87.307C512 68.534 496.747 53.28 477.973 53.28zm-2.24 21.334L270.72 283.147c-8.107 7.893-21.013 8-29.227.213L36.267 74.614h439.466zm-454.4 348.053v-332.8l169.92 172.8-169.92 160zm15.574 14.613l169.387-159.36 20.16 20.587c7.893 7.68 18.453 12.053 29.44 12.053 11.093 0 21.867-4.373 29.76-12.16l15.147-15.467L474.667 437.28H36.907zm453.76-14.186L315.84 267.574 490.667 89.867v333.227z"/></svg>