<svg xmlns="http://www.w3.org/2000/svg" width="800" height="800" viewBox="0 -0.02 60.031 60.031" fill="#ECB203" xmlns:v="https://vecta.io/nano"><path d="M30.006 9.607l5.32 10.771a9.12 9.12 0 0 0 2.647 3.216c1.097.828 2.366 1.4 3.713 1.675l8.235 1.667-6.122 4.647a9.01 9.01 0 0 0-3.454 8.781l1.976 10.994-7.839-4.409a9.15 9.15 0 0 0-8.958 0l-7.833 4.405 1.974-10.984a9 9 0 0 0-3.43-8.776l-6.142-4.662 8.227-1.666c2.76-.551 5.108-2.352 6.356-4.874l5.33-10.789m0-9.606a3.1 3.1 0 0 0-2.792 1.716L19.3 17.731a3.02 3.02 0 0 1-.885 1.074 3.13 3.13 0 0 1-1.28.577L2.481 22.349A3.07 3.07 0 0 0 .09 24.634a3 3 0 0 0 1.117 3.085l11.4 8.657a3 3 0 0 1 .993 1.3 2.93 2.93 0 0 1 .16 1.618l-3.076 17.135a3 3 0 0 0 1.274 3.011 3.13 3.13 0 0 0 1.777.551c.542.002 1.076-.136 1.55-.4l13.174-7.409c.96-.539 2.13-.539 3.09 0L44.731 59.6a3.16 3.16 0 0 0 3.326-.147 3 3 0 0 0 1.275-3.011L46.249 39.3a2.95 2.95 0 0 1 .162-1.618 3 3 0 0 1 .993-1.3l11.4-8.657a3 3 0 0 0 1.117-3.085 3.07 3.07 0 0 0-2.393-2.285l-14.656-2.967a3.16 3.16 0 0 1-1.281-.577 3.03 3.03 0 0 1-.884-1.074l-7.91-16.018A3.11 3.11 0 0 0 30.006 0h0z" fill-rule="evenodd"/></svg>