<svg xmlns="http://www.w3.org/2000/svg" viewBox="0 0 32 32" width="800" height="800" fill="none" stroke="#532ee7" stroke-width="2" stroke-linejoin="round" xmlns:v="https://vecta.io/nano"><path d="M21,15H11l-2.1,2.9C7,20.6,6,23.7,6,27v0h20v0c0-3.3-1-6.4-2.9-9.1L21,15z" stroke-miterlimit="10"/><circle cx="16" cy="21" r="3"/><g stroke-miterlimit="10"><path d="M12.9 8H19c1.1 0 2 .9 2 1.9h0c0 1.1.9 2.1 2.1 2.1H28c0-3.9-3.1-7-7-7H11c-3.8 0-7 3.1-7 7h4.9c1.1 0 2.1-.9 2.1-2.1h0A1.97 1.97 0 0 1 12.9 8z"/><path d="M14 13v2m4-2v2m5 12v2M9 27v2" stroke-linecap="round"/></g></svg>