<svg xmlns="http://www.w3.org/2000/svg" width="800" height="800" viewBox="0 -0.03 60.062 60.062" fill="#ECB203" stroke="#ECB203" xmlns:v="https://vecta.io/nano"><path d="M40.742 17.733a3.03 3.03 0 0 0 .884 1.072 3.17 3.17 0 0 0 1.282.578l14.662 2.965c1.175.229 2.11 1.121 2.394 2.284a3 3 0 0 1-1.118 3.084L47.438 36.37a3.01 3.01 0 0 0-.994 1.3c-.204.514-.259 1.074-.16 1.618l3.078 17.132a3 3 0 0 1-1.275 3.01c-.992.676-2.281.732-3.328.146l-13.18-7.407c-.96-.537-2.131-.537-3.091 0l-13.181 7.407c-1.047.588-2.336.531-3.327-.146a3 3 0 0 1-1.275-3.01l3.078-17.129c.099-.544.044-1.104-.16-1.618a3.01 3.01 0 0 0-.994-1.3L1.221 27.719a3 3 0 0 1-1.118-3.084 3.07 3.07 0 0 1 2.393-2.284l14.66-2.965a3.14 3.14 0 0 0 1.281-.578c.374-.284.677-.651.885-1.072L27.24 1.723C27.774.671 28.854.008 30.033.008s2.259.663 2.793 1.715z" fill-rule="evenodd"/></svg>