<svg xmlns="http://www.w3.org/2000/svg" width="800" height="800" viewBox="0 -0.02 60.031 60.031" fill="#ECB203" xmlns:v="https://vecta.io/nano"><path d="M58.807 27.723l-11.4 8.657a3 3 0 0 0-.993 1.3 2.95 2.95 0 0 0-.162 1.618l3.078 17.135a3 3 0 0 1-1.275 3.011 3.16 3.16 0 0 1-3.326.147l-13.174-7.409c-.96-.539-2.13-.539-3.09 0L15.288 59.6c-.474.264-1.008.402-1.55.4a3.13 3.13 0 0 1-1.777-.551 3 3 0 0 1-1.274-3.011l3.076-17.135a2.93 2.93 0 0 0-.16-1.618 3 3 0 0 0-.993-1.3l-11.4-8.657a3 3 0 0 1-1.117-3.085 3.07 3.07 0 0 1 2.391-2.285l14.654-2.967a3.13 3.13 0 0 0 1.28-.577 3.02 3.02 0 0 0 .885-1.074l7.914-16.018A3.13 3.13 0 0 1 30.01.006a3.13 3.13 0 0 1 2.793 1.716l7.91 16.018a3.03 3.03 0 0 0 .884 1.074 3.16 3.16 0 0 0 1.281.577l14.655 2.967a3.07 3.07 0 0 1 2.394 2.285 3 3 0 0 1-1.12 3.08zm-17.121-2.454a9.22 9.22 0 0 1-3.713-1.675 9.12 9.12 0 0 1-2.647-3.216l-5.295-10.72v36.125a9.19 9.19 0 0 1 4.451 1.166l7.839 4.409-1.976-10.994a9.01 9.01 0 0 1 3.454-8.781l6.122-4.647z" fill-rule="evenodd"/></svg>