<svg xmlns="http://www.w3.org/2000/svg" xmlns:xlink="http://www.w3.org/1999/xlink" width="48" height="48" xmlns:v="https://vecta.io/nano"><radialGradient id="A" cx="19.38" cy="42.035" r="44.899" gradientUnits="userSpaceOnUse"><stop offset="0" stop-color="#fd5"/><stop offset=".328" stop-color="#ff543f"/><stop offset=".348" stop-color="#fc5245"/><stop offset=".504" stop-color="#e64771"/><stop offset=".643" stop-color="#d53e91"/><stop offset=".761" stop-color="#cc39a4"/><stop offset=".841" stop-color="#c837ab"/></radialGradient><use xlink:href="#D" fill="url(#A)"/><radialGradient id="B" cx="11.786" cy="5.54" r="29.813" gradientTransform="matrix(1,0,0,0.6663,0,1.849)" gradientUnits="userSpaceOnUse"><stop offset="0" stop-color="#4168c9"/><stop offset=".999" stop-color="#4168c9" stop-opacity="0"/></radialGradient><use xlink:href="#D" fill="url(#B)"/><g fill="#fff"><path d="M24,31c-3.859,0-7-3.14-7-7s3.141-7,7-7s7,3.14,7,7S27.859,31,24,31z M24,19c-2.757,0-5,2.243-5,5 s2.243,5,5,5s5-2.243,5-5S26.757,19,24,19z"/><circle cx="31.5" cy="16.5" r="1.5"/><path d="M30 37H18a7.01 7.01 0 0 1-7-7V18a7.01 7.01 0 0 1 7-7h12a7.01 7.01 0 0 1 7 7v12a7.01 7.01 0 0 1-7 7zM18 13c-2.757 0-5 2.243-5 5v12c0 2.757 2.243 5 5 5h12c2.757 0 5-2.243 5-5V18c0-2.757-2.243-5-5-5H18z"/></g><defs ><path id="D" d="M34.017 41.99l-20 .019c-4.4.004-8.003-3.592-8.008-7.992l-.019-20c-.004-4.4 3.592-8.003 7.992-8.008l20-.019c4.4-.004 8.003 3.592 8.008 7.992l.019 20c.005 4.401-3.592 8.004-7.992 8.008z"/></defs></svg>