<svg xmlns="http://www.w3.org/2000/svg" fill="#000000" height="800" width="800" viewBox="0 0 467.211 467.211" xmlns:v="https://vecta.io/nano"><path d="M413.917 96.775H53.295c-6.369 0-11.551 5.181-11.551 11.55v213.182c0 6.369 5.182 11.55 11.551 11.55h360.622c6.368 0 11.55-5.181 11.55-11.55V108.326c0-6.369-5.182-11.551-11.55-11.551zm1.55 224.732a1.55 1.55 0 0 1-1.55 1.55H53.295c-.855 0-1.551-.696-1.551-1.55V108.326a1.55 1.55 0 0 1 1.551-1.55h360.622c.854 0 1.55.696 1.55 1.55v213.181zm44.244 19.051h-11.744V102.843c0-15.752-12.815-28.568-28.568-28.568H47.813c-15.753 0-28.568 12.815-28.568 28.568v237.714H7.5a7.5 7.5 0 0 0-7.5 7.5v20.605c0 13.384 10.889 24.272 24.272 24.272h418.666c13.384 0 24.272-10.889 24.272-24.272v-20.605a7.5 7.5 0 0 0-7.499-7.499zM34.244 102.843c0-7.481 6.087-13.568 13.568-13.568h371.586c7.481 0 13.568 6.086 13.568 13.568v237.714H34.244V102.843zm177.361 252.715h44v3.922a3.19 3.19 0 0 1-3.184 3.184h-37.633a3.19 3.19 0 0 1-3.184-3.184v-3.922zm240.607 13.105c0 5.113-4.159 9.272-9.272 9.272H24.273c-5.113 0-9.272-4.16-9.272-9.272v-13.105h11.744 174.861v3.922c0 7.27 5.914 13.184 13.184 13.184h37.633c7.27 0 13.184-5.914 13.184-13.184v-3.922h174.861 11.744v13.105z"/></svg>