<svg xmlns="http://www.w3.org/2000/svg" fill="#532ee7" width="800" height="800" viewBox="0 0 32 32" xmlns:v="https://vecta.io/nano"><path d="M16 17a5 5 0 1 0-5-5 5 5 0 0 0 5 5zm0-8a3 3 0 1 1-3 3 3 3 0 0 1 3-3zm6.72 11.57C24.89 16.78 26 13.89 26 12a10 10 0 0 0-20 0c0 1.89 1.11 4.78 3.28 8.57C6.33 21.09 2 22.32 2 25c0 3.44 7.26 5 14 5s14-1.56 14-5c0-2.68-4.33-3.91-7.28-4.43zM16 4a8 8 0 0 1 8 8c0 1.68-1.33 4.81-3.74 8.82l-.55.9c0 .08-.09.15-.13.22l-.45.71a1.74 1.74 0 0 1-.11.18l-1.09 1.67-.08.12-.45.67-.07.1-.91 1.32-.06.08-.32.46v.05-.05a98.33 98.33 0 0 1-1.87-2.7h0l-1.11-1.71-.12-.19-.5-.65-.17-.27-.42-.7-.11-.18h0C9.33 16.81 8 13.68 8 12a8 8 0 0 1 8-8zM4 25c0-.59 1.88-1.91 6.36-2.59v.05l.42.67.07.12.46.73h0a25.54 25.54 0 0 0 1 1.48h0l.43.64.08.11.35.52.07.1.34.5.05.06.37.61c-6.25-.35-10-2-10-3zm14 3l.34-.48.05-.08.34-.49.07-.1.34-.5.1-.14.35-.53.1-.15c.31-.46.62-.94.94-1.45l.11-.16.37-.59.16-.26.32-.52.06-.09c4.48.68 6.36 2 6.36 2.59C28 26 24.25 27.65 18 28z"/></svg>