<svg xmlns="http://www.w3.org/2000/svg" fill="#000000" height="800" width="800" viewBox="0 0 512 512" xmlns:v="https://vecta.io/nano"><path d="M302.933 42.667h-51.2c-7.074 0-12.8 5.726-12.8 12.8s5.726 12.8 12.8 12.8h51.2c7.074 0 12.8-5.726 12.8-12.8s-5.726-12.8-12.8-12.8zM358.4 0H153.6c-28.228 0-51.2 22.972-51.2 51.2v409.6c0 28.228 22.972 51.2 51.2 51.2h204.8c28.228 0 51.2-22.972 51.2-51.2V51.2c0-28.228-22.972-51.2-51.2-51.2zM384 460.8c0 14.14-11.46 25.6-25.6 25.6H153.6c-14.14 0-25.6-11.46-25.6-25.6V51.2c0-14.14 11.46-25.6 25.6-25.6h204.8c14.14 0 25.6 11.46 25.6 25.6v409.6z"/><circle cx="256" cy="443.733" r="25.6"/><circle cx="209.067" cy="55.467" r="12.8"/></svg>