<svg xmlns="http://www.w3.org/2000/svg" fill="#532ee7" height="800" width="800" viewBox="0 0 484.4 484.4" xmlns:v="https://vecta.io/nano"><path d="M467.844 350.3l-60.3-60.2c-10.7-10.6-23.2-16.2-36.3-16.2s-25.6 5.6-36.2 16.1l-2.7 2.7-32.5 32.6-6.5-3.3c-4.9-2.4-9.6-4.7-13.7-7.3-32.2-20.2-61.8-47.1-90.4-82.4-13.9-17.1-23.6-32.3-30.4-47.7 9.5-9.2 18.8-18.6 27.9-27.8l7-7c22.3-22.4 22.2-51.4-.1-73.9l-20.5-20.5-9-9-9.5-9.5-21-20.9c-10.7-10.5-23.3-16-36.3-16s-25.6 5.5-36.2 16l-15.2 15.2-22.2 22c-14 13.3-21.8 30.1-23.3 50-2.3 31.3 6.4 59.6 14.2 80.8 17.8 47.9 45 93.3 83.2 138.8 47.6 56.6 104.9 101.4 170.3 133.3 36 17.5 66.9 26.4 97 28.1l6.5.2c25.4 0 46.3-9 62.1-26.6 6.8-7.6 14.1-14.7 21.8-22.2l11.9-11.7c22.4-22.5 22.5-51.3.4-73.6zm-19.4 54.6l-11.5 11.4c-7.7 7.5-15.7 15.3-23.1 23.6-11.7 13.1-26.5 18.6-47 17.5-26.5-1.5-54-9.5-86.7-25.4-62-30.2-116.4-72.7-161.5-126.3-36.2-43.1-61.9-85.8-78.6-130.8-10.3-27.6-14.1-49-12.6-69.3 1-13.1 5.9-23.8 15-32.4l22.7-22.8 14.9-15c3.8-3.8 9.9-8.3 17.3-8.3s13.5 4.5 17.4 8.3l20.7 20.7 9.5 9.5 9 9 20.4 20.4c12 12.1 12.1 23.8.1 35.8l-7 7.1-29.9 29.7c-5 4.8-9.9 13-5 24.8 7.8 18.7 19.1 36.9 35.5 57.1 30.5 37.5 62.3 66.4 97 88.2 5.4 3.4 10.9 6.1 16.2 8.7 3.2 1.5 6.1 3 9 4.6 3.6 2 7.2 2.9 10.8 2.9h0c5.7 0 11-2.5 15.7-7.3 11.3-11.7 23.1-23.3 34.4-34.6l2.7-2.7c3.8-3.8 9.9-8.3 17.2-8.3s13.4 4.5 17.3 8.3l60.1 60.1c11.7 11.5 11.6 23.8 0 35.5z"/></svg>