<svg xmlns="http://www.w3.org/2000/svg" width="800" height="800" viewBox="0 -2 20 20" fill="#532ee7" xmlns:v="https://vecta.io/nano"><path d="M6.29 16c7.547 0 11.675-6.156 11.675-11.495 0-.175 0-.35-.012-.523.803-.571 1.496-1.28 2.047-2.091-.748.327-1.543.542-2.356.636A4.07 4.07 0 0 0 19.448.293c-.806.471-1.687.802-2.606.981-1.554-1.626-4.153-1.705-5.806-.175-1.065.987-1.518 2.457-1.187 3.86C6.55 4.795 3.476 3.261 1.392.738.303 2.584.86 4.945 2.663 6.13A4.12 4.12 0 0 1 .8 5.625v.051c.001 1.923 1.378 3.579 3.292 3.96-.604.162-1.238.186-1.852.069.537 1.646 2.078 2.773 3.833 2.806-1.453 1.124-3.248 1.735-5.096 1.733-.326-.001-.652-.02-.977-.058C1.877 15.371 4.06 16 6.29 15.997" fill-rule="evenodd"/></svg>